<svg width="256" height="256" viewBox="0 0 256 256" fill="none" xmlns="http://www.w3.org/2000/svg" role="img" aria-labelledby="title desc">
  <title id="title">Operon loop mark</title>
  <desc id="desc">Four-segment loop mark for Operon.</desc>
  <rect width="256" height="256" rx="56" fill="#0F172A"/>
  <g transform="translate(128 128)">
    <path d="M0 -78C24 -78 44 -58 44 -34V-10H18V-34C18 -43 10 -52 0 -52C-10 -52 -18 -43 -18 -34V-14C-18 4 -7 21 10 29L31 39C57 51 74 77 74 106V110H48V106C48 87 37 71 20 63L-2 52C-28 40 -44 14 -44 -14V-34C-44 -58 -24 -78 0 -78Z" fill="#38BDF8"/>
    <path d="M78 0C78 24 58 44 34 44H10V18H34C43 18 52 10 52 0C52 -10 43 -18 34 -18H14C-4 -18 -21 -7 -29 10L-39 31C-51 57 -77 74 -106 74H-110V48H-106C-87 48 -71 37 -63 20L-52 -2C-40 -28 -14 -44 14 -44H34C58 -44 78 -24 78 0Z" fill="#F59E0B"/>
    <path d="M0 78C-24 78 -44 58 -44 34V10H-18V34C-18 43 -10 52 0 52C10 52 18 43 18 34V14C18 -4 7 -21 -10 -29L-31 -39C-57 -51 -74 -77 -74 -106V-110H-48V-106C-48 -87 -37 -71 -20 -63L2 -52C28 -40 44 -14 44 14V34C44 58 24 78 0 78Z" fill="#22C55E"/>
    <path d="M-78 0C-78 -24 -58 -44 -34 -44H-10V-18H-34C-43 -18 -52 -10 -52 0C-52 10 -43 18 -34 18H-14C4 18 21 7 29 -10L39 -31C51 -57 77 -74 106 -74H110V-48H106C87 -48 71 -37 63 -20L52 2C40 28 14 44 -14 44H-34C-58 44 -78 24 -78 0Z" fill="#F43F5E"/>
  </g>
</svg>
